<svg xmlns="http://www.w3.org/2000/svg" viewBox="0 0 24 24" fill="#D32323">
  <path d="M20.16 12.594l-4.995 1.433c-.96.276-1.74-.8-1.176-1.63l2.905-4.308a1.072 1.072 0 0 1 1.596-.206 9.194 9.194 0 0 1 2.364 3.252 1.073 1.073 0 0 1-.686 1.459zm-5.025 3.152l4.942 1.606a1.072 1.072 0 0 1 .636 1.48 9.316 9.316 0 0 1-2.47 3.169 1.073 1.073 0 0 1-1.592-.26l-2.76-4.409c-.55-.88.253-1.932 1.244-1.586zm-3.54.893l.433 5.209a1.073 1.073 0 0 1-.968 1.164 9.199 9.199 0 0 1-3.97-.497 1.073 1.073 0 0 1-.553-1.516l2.447-4.665c.473-.9 1.676-.64 2.611.305zm-1.61-2.39L6.09 16.39a1.073 1.073 0 0 1-1.558.385 9.285 9.285 0 0 1-2.273-3.321 1.073 1.073 0 0 1 .728-1.433l4.994-1.32c.944-.25 1.713.851 1.004 1.538zM10.5 3.921v5.187c0 1.007-1.31 1.378-1.855.54L5.98 5.312a1.072 1.072 0 0 1 .313-1.556 9.2 9.2 0 0 1 3.924-1.622c.628-.09 1.283.42 1.283 1.787z"/>
</svg>
